<svg width="1320" height="224" viewBox="0 0 1320 224" fill="none" xmlns="http://www.w3.org/2000/svg">
<g clip-path="url(#clip0_83_556)">
<rect y="-367" width="1320" height="591" rx="1" fill="#101828"/>
<g clip-path="url(#clip1_83_556)">
<path d="M345.665 329.662C342.471 329.662 339.712 328.5 337.388 326.177C335.065 323.854 333.903 321.094 333.903 317.9V36.4751C333.903 33.2804 335.065 30.5213 337.388 28.1979C339.712 25.8745 342.471 24.7128 345.665 24.7128H434.532C437.727 24.7128 440.486 25.8745 442.809 28.1979C445.132 30.5213 446.294 33.2804 446.294 36.4751V317.9C446.294 321.094 445.132 323.854 442.809 326.177C440.486 328.5 437.727 329.662 434.532 329.662H345.665Z" fill="white"/>
<path d="M40.7618 325.306C37.5673 325.306 34.8083 324.144 32.485 321.82C30.1617 319.497 29 316.738 29 313.543V32.1187C29 28.9239 30.1617 26.1649 32.485 23.8415C34.8083 21.518 37.5673 20.3563 40.7618 20.3563H123.966C127.16 20.3563 129.919 21.518 132.243 23.8415C134.566 26.1649 135.728 28.9239 135.728 32.1187V118.376L184.953 29.9404C186.405 27.617 188.486 25.4388 191.294 23.4058C194.053 21.3728 197.731 20.3563 202.378 20.3563H298.651C301.264 20.3563 303.491 21.3244 305.427 23.1638C307.315 25.0516 308.234 27.2782 308.234 29.9404C308.234 31.683 307.799 33.2804 306.927 34.7325L228.515 166.296L314.333 310.929C315.204 312.091 315.64 313.688 315.64 315.721C315.64 318.335 314.672 320.61 312.833 322.498C310.945 324.386 308.718 325.306 306.056 325.306H206.734C200.926 325.306 196.618 323.95 193.908 321.143C191.149 318.384 189.454 316.448 188.874 315.286L135.728 220.316V313.543C135.728 316.738 134.566 319.497 132.243 321.82C129.919 324.144 127.16 325.306 123.966 325.306H40.7618Z" fill="white"/>
<path d="M608.959 329.662C581.079 329.662 556.394 325.596 534.903 317.464C513.413 309.332 496.326 296.553 483.693 279.128C471.06 261.702 464.139 239.194 463.025 211.603C462.735 199.696 462.59 186.917 462.59 173.267C462.59 159.617 462.735 146.547 463.025 134.059C464.187 107.049 471.205 84.8314 484.129 67.4057C497.052 49.9801 514.332 37.056 535.968 28.6336C557.604 20.2112 581.951 16 608.959 16C627.546 16 645.455 18.1298 662.783 22.2926C680.063 26.5038 695.648 33.1352 709.588 42.1385C723.528 51.1418 734.612 62.7105 742.889 76.7478C751.166 90.8336 755.425 107.775 755.764 127.524C755.764 130.138 754.796 132.413 752.957 134.301C751.069 136.189 748.843 137.108 746.18 137.108H657.313C652.667 137.108 649.23 136.189 647.052 134.301C644.874 132.413 642.938 129.17 641.195 124.475C638.001 115.181 633.644 108.937 628.127 105.742C622.609 102.548 616.074 100.95 608.524 100.95C598.94 100.95 591.292 103.516 585.629 108.598C579.966 113.681 576.82 122.926 576.239 136.237C575.368 160.052 575.368 184.448 576.239 209.425C576.82 222.785 579.966 232.03 585.629 237.064C591.292 242.147 598.94 244.712 608.524 244.712C616.074 244.712 622.657 242.969 628.32 239.484C633.983 235.999 638.243 229.9 641.195 221.187C642.647 216.25 644.535 212.91 646.858 211.168C649.182 209.425 652.667 208.554 657.313 208.554H746.18C748.794 208.554 751.021 209.522 752.957 211.361C754.845 213.249 755.764 215.476 755.764 218.138C755.474 237.887 751.214 254.829 742.889 268.914C734.612 283 723.528 294.569 709.588 303.524C695.648 312.527 680.014 319.158 662.783 323.321C645.455 327.532 627.546 329.662 608.959 329.662Z" fill="white"/>
<path d="M1013.12 310.929L927.303 166.296L1005.72 34.7325C1006.59 33.2804 1007.02 31.683 1007.02 29.9404C1007.02 27.3266 1006.1 25.1 1004.22 23.2122C1002.33 21.3244 1000.05 20.3563 997.439 20.3563H901.166C896.519 20.3563 892.841 21.3728 890.082 23.4058C887.323 25.4388 885.193 27.617 883.741 29.9404L840.179 108.211L834.516 118.376V32.1187C834.516 28.9239 833.354 26.1649 831.031 23.8415C828.707 21.518 825.949 20.3563 822.754 20.3563H739.55C736.355 20.3563 733.596 21.518 731.273 23.8415C730.983 24.1803 730.692 24.4707 730.402 24.8096C730.111 25.1484 729.869 25.4872 729.676 25.826C729.434 26.1649 729.24 26.5521 729.047 26.891C728.853 27.2782 728.708 27.617 728.563 28.0043C743.567 38.3144 755.862 51.3837 765.01 66.97C774.932 83.9116 780.16 104.193 780.498 127.234C780.498 135.221 777.498 142.481 772.028 147.999C766.51 153.469 759.25 156.47 751.554 156.47H727.788V189.192H751.554C759.25 189.192 766.51 192.193 771.98 197.663C777.498 203.229 780.498 210.49 780.498 218.138C780.16 241.469 774.932 261.75 765.01 278.692C755.862 294.278 743.567 307.347 728.563 317.658C728.708 318.045 728.853 318.432 729.047 318.771C729.434 319.497 729.869 320.223 730.402 320.852C730.692 321.191 730.983 321.482 731.273 321.82C733.596 324.144 736.355 325.306 739.55 325.306H822.754C825.949 325.306 828.707 324.144 831.031 321.82C833.354 319.497 834.516 316.738 834.516 313.543V220.316L840.179 230.432L887.662 315.286C888.243 316.448 889.937 318.432 892.696 321.191C895.455 323.95 899.714 325.306 905.522 325.306H1004.84C1007.46 325.306 1009.73 324.386 1011.62 322.498C1013.51 320.61 1014.43 318.335 1014.43 315.721C1014.43 313.688 1013.99 312.091 1013.12 310.929Z" fill="white"/>
<path d="M1146.37 329.662C1114.14 329.662 1087.56 325.306 1066.65 316.593C1045.74 307.88 1030.06 296.408 1019.61 282.177C1009.15 267.946 1003.63 252.844 1003.05 236.87C1003.05 234.257 1003.97 232.03 1005.86 230.094C1007.75 228.206 1009.97 227.286 1012.59 227.286H1095.36C1100 227.286 1103.54 227.916 1106.05 229.222C1108.52 230.529 1111.18 232.369 1114.14 234.644C1117.04 236.677 1119.99 238.516 1123.04 240.065C1126.09 241.662 1129.58 242.824 1133.5 243.55C1137.42 244.276 1141.68 244.664 1146.37 244.664C1156.25 244.664 1164.14 243.55 1170.09 241.372C1176.04 239.194 1179.04 236.241 1179.04 232.466C1179.04 228.98 1177.35 226.076 1174.01 223.753C1170.67 221.429 1164.91 219.348 1156.78 217.46C1148.65 215.572 1137.32 213.733 1122.8 212.039C1099.86 208.844 1079.96 203.471 1063.12 195.92C1046.28 188.369 1033.26 178.01 1024.16 164.747C1015.01 151.533 1010.46 135.317 1010.46 116.149C1010.46 96.4001 1016.02 78.9745 1027.21 63.8722C1038.39 48.77 1053.92 37.0076 1073.82 28.5852C1093.71 20.2112 1116.9 16 1143.32 16C1165.1 16 1184.42 18.8075 1201.26 24.4708C1218.11 30.1342 1232.34 37.5401 1243.95 46.6885C1255.57 55.837 1264.43 65.6632 1270.53 76.1186C1276.62 86.574 1279.82 96.5937 1280.11 106.178C1280.11 108.792 1279.14 111.067 1277.3 112.955C1275.41 114.842 1273.28 115.762 1270.96 115.762H1183.84C1179.77 115.762 1176.48 115.181 1174.06 114.019C1171.59 112.858 1169.03 111.115 1166.41 108.792C1164.96 107.34 1162.25 105.694 1158.33 103.758C1154.41 101.87 1149.42 100.95 1143.27 100.95C1136.01 100.95 1130.69 102.063 1127.4 104.242C1124.06 106.42 1122.37 109.421 1122.37 113.148C1122.37 115.762 1123.67 118.231 1126.29 120.554C1128.9 122.877 1133.69 124.91 1140.66 126.653C1147.63 128.396 1157.65 130.138 1170.72 131.881C1199.76 135.366 1223.04 140.981 1240.66 148.629C1258.23 156.325 1271.01 166.587 1279 179.366C1286.98 192.145 1291 207.973 1291 226.851C1291 248.052 1284.66 266.349 1272.03 281.742C1259.39 297.134 1242.16 308.945 1220.38 317.222C1198.6 325.499 1173.96 329.662 1146.37 329.662Z" fill="white"/>
</g>
</g>
<defs>
<clipPath id="clip0_83_556">
<rect y="-367" width="1320" height="591" rx="1" fill="white"/>
</clipPath>
<clipPath id="clip1_83_556">
<rect width="1262" height="313.662" fill="white" transform="translate(29 16)"/>
</clipPath>
</defs>
</svg>
